<?xml version="1.0" standalone="no"?>
<!DOCTYPE svg PUBLIC "-//W3C//DTD SVG 20010904//EN"
 "http://www.w3.org/TR/2001/REC-SVG-20010904/DTD/svg10.dtd">
<svg version="1.0" xmlns="http://www.w3.org/2000/svg"
 width="700.000000pt" height="700.000000pt" viewBox="0 0 700.000000 700.000000"
 preserveAspectRatio="xMidYMid meet">
<metadata>
Created by potrace 1.11, written by Peter Selinger 2001-2013
</metadata>
<g transform="translate(0.000000,700.000000) scale(0.100000,-0.100000)"
fill="#000000" stroke="none">
<path d="M1905 6371 l-1590 -568 2 -40 c3 -69 473 -4147 481 -4171 5 -18 302
-186 1359 -772 l1353 -749 302 168 c472 262 1468 814 1953 1081 242 134 443
246 447 249 5 4 465 3953 491 4210 2 23 -51 43 -1578 588 -869 310 -1591 566
-1605 568 -16 3 -589 -197 -1615 -564z m2695 -1667 c105 -42 333 -408 419
-674 172 -530 94 -1104 -214 -1570 -35 -53 -88 -123 -117 -154 -53 -56 -54
-56 -112 -56 -57 0 -60 2 -107 49 -47 46 -49 51 -49 103 0 53 3 60 69 148 221
298 324 623 308 979 -15 332 -137 654 -342 896 -54 65 -65 86 -65 130 0 43 18
80 57 117 51 49 90 57 153 32z m-1120 -162 c19 -9 43 -33 55 -52 20 -34 20
-50 23 -1003 2 -684 -1 -980 -9 -1010 -22 -81 -104 -125 -181 -96 -20 8 -162
118 -315 245 -153 127 -327 272 -388 322 l-110 92 -220 0 c-246 0 -270 5 -312
69 -23 34 -23 38 -23 356 0 318 0 322 23 356 42 64 66 69 312 69 l220 0 205
171 c345 288 574 475 595 487 30 17 85 14 125 -6z m649 -326 c50 -27 158 -188
212 -317 133 -325 108 -701 -69 -1002 -25 -42 -59 -93 -74 -111 -54 -65 -139
-71 -204 -14 -75 66 -83 138 -24 222 45 67 105 199 126 281 12 48 18 107 18
190 0 83 -6 142 -18 190 -22 87 -84 221 -132 288 -50 70 -67 113 -59 154 7 36
66 110 100 123 32 14 94 11 124 -4z"/>
</g>
</svg>
