<svg width="512" height="512" xmlns="http://www.w3.org/2000/svg">
 <!-- Created with Method Draw - http://github.com/duopixel/Method-Draw/ -->

 <g>
  <title>background</title>
  <rect fill="none" id="canvas_background" height="514" width="514" y="-1" x="-1"/>
  <g display="none" overflow="visible" y="0" x="0" height="100%" width="100%" id="canvasGrid">
   <rect fill="url(#gridpattern)" stroke-width="0" y="0" x="0" height="100%" width="100%"/>
  </g>
 </g>
 <g>
  <title>Layer 1</title>
  <style transform="matrix(0.46603376779513894,0,0,0.46603376779513894,0,0) " type="text/css">.st0{fill:#DD0031;}
	.st1{fill:#C3002F;}
	.st2{fill:#FFFFFF;}</style>
  <g stroke="null" id="svg_8">
   <g stroke="null" transform="matrix(2.5122204305161695,0,0,2.5122204305161695,-1123.5039578168125,-1123.4669114951682) " id="svg_5">
    <polygon stroke="null" id="svg_6" points="549.31640625,449.31640625 549.31640625,449.31640625 549.31640625,449.31640625 456.2164058685303,482.51641845703125 470.4164047241211,605.6163940429688 549.31640625,649.31640625 549.31640625,649.31640625 549.31640625,649.31640625 628.2164001464844,605.6163940429688 642.4164123535156,482.51641845703125 " class="st0"/>
    <polygon stroke="null" id="svg_7" points="549.31640625,449.31640625 549.31640625,471.51641845703125 549.31640625,471.4164123535156 549.31640625,572.7164306640625 549.31640625,572.7164306640625 549.31640625,649.31640625 549.31640625,649.31640625 628.2164001464844,605.6163940429688 642.4164123535156,482.51641845703125 549.31640625,449.31640625 " class="st1"/>
   </g>
  </g>
  <g stroke="null" id="svg_14">
   <path fill="#ffffff" stroke="null" id="svg_12" d="m125.95371,216.86112l0,77.90741l51.93827,0l64.92284,64.92284l0,-207.75309l-64.92284,64.92284l-51.93827,0zm175.29167,38.9537c0,-22.98268 -13.24426,-42.71923 -32.46142,-52.32781l0,104.52577c19.21716,-9.47873 32.46142,-29.21527 32.46142,-52.19796zm-32.46142,-113.87466l0,26.74821c37.5254,11.16673 64.92284,45.96537 64.92284,87.12645s-27.39744,75.95972 -64.92284,87.12645l0,26.74821c52.06811,-11.81595 90.89197,-58.30071 90.89197,-113.87466s-38.82386,-102.0587 -90.89197,-113.87466z"/>
  </g>
 </g>
</svg>