<?xml version="1.0" standalone="no"?>
<!DOCTYPE svg PUBLIC "-//W3C//DTD SVG 20010904//EN"
 "http://www.w3.org/TR/2001/REC-SVG-20010904/DTD/svg10.dtd">
<svg version="1.0" xmlns="http://www.w3.org/2000/svg"
 width="700.000000pt" height="700.000000pt" viewBox="0 0 700.000000 700.000000"
 preserveAspectRatio="xMidYMid meet">
<metadata>
Created by potrace 1.11, written by Peter Selinger 2001-2013
</metadata>
<g transform="translate(0.000000,700.000000) scale(0.100000,-0.100000)"
fill="#000000" stroke="none">
<path d="M1911 6359 c-877 -313 -1596 -571 -1598 -573 -7 -7 486 -4231 494
-4233 5 -2 535 -295 1178 -651 644 -357 1250 -692 1347 -746 l178 -98 907 503
c1652 915 1788 990 1795 997 4 4 115 946 248 2092 132 1147 242 2097 244 2111
l5 27 -1592 567 c-876 313 -1596 569 -1602 571 -5 2 -727 -254 -1604 -567z
m1959 -1357 c495 -175 896 -634 1009 -1154 105 -484 -14 -978 -329 -1363 -97
-119 -237 -242 -373 -329 -128 -82 -358 -180 -471 -201 l-36 -7 2 182 3 182
65 22 c289 102 544 328 686 609 101 199 139 377 131 607 -12 320 -122 581
-346 813 -134 139 -259 223 -446 298 l-90 36 -3 169 c-1 92 0 174 2 181 5 13
80 -5 196 -45z m-550 -1499 l0 -1418 -443 443 -442 442 -358 0 -357 0 2 533 3
532 355 3 355 2 440 440 c242 242 441 440 442 440 2 0 3 -638 3 -1417z m437
666 c409 -267 481 -847 151 -1205 -57 -62 -208 -174 -234 -174 -2 0 -4 320 -4
710 0 564 3 710 13 710 7 0 40 -18 74 -41z"/>
</g>
</svg>
